<svg enable-background="new 0 0 128 128" viewBox="0 0 128 128" xmlns="http://www.w3.org/2000/svg" xmlns:xlink="http://www.w3.org/1999/xlink"><linearGradient id="a" gradientUnits="userSpaceOnUse" x1="63.875" x2="63.875" y1="95.875" y2="32.179"><stop offset="0" stop-color="#43a047"/><stop offset=".9992" stop-color="#66bb6a"/></linearGradient><path d="m119.53 108.05h-111.31c-2.4 0-4.35-1.95-4.35-4.35v-67.46c0-2.41 1.95-4.37 4.37-4.37h111.27c2.41 0 4.37 1.95 4.37 4.37v67.46c0 2.41-1.95 4.35-4.35 4.35z" fill="#2e7d32"/><path d="m119.65 95.88h-111.55c-2.33 0-4.22-1.89-4.22-4.22v-55.42c0-2.41 1.95-4.37 4.37-4.37h111.27c2.41 0 4.37 1.95 4.37 4.37v55.41c-.01 2.34-1.9 4.23-4.24 4.23z" fill="url(#a)"/><g fill="#fff"><path d="m39.55 71.34c0-1.23-.43-2.27-1.29-3.11s-2.32-1.61-4.37-2.29c-2.85-.87-4.93-2-6.23-3.4-1.31-1.4-1.96-3.18-1.96-5.33 0-2.2.64-4 1.92-5.4 1.28-1.41 3.04-2.24 5.27-2.51v-3.47c0-.51.42-.93.93-.93h1.13c.51 0 .93.42.93.93v3.49c2.25.31 4 1.25 5.25 2.83 1.12 1.42 1.74 3.3 1.86 5.65.02.46-.36.84-.82.84h-2.07c-.44 0-.78-.35-.82-.79-.11-1.53-.55-2.77-1.32-3.72-.9-1.11-2.11-1.67-3.63-1.67-1.59 0-2.81.41-3.65 1.24-.84.82-1.27 1.98-1.27 3.45 0 1.37.45 2.46 1.34 3.27s2.36 1.55 4.4 2.21 3.63 1.39 4.78 2.19c1.14.8 1.99 1.72 2.53 2.78s.81 2.3.81 3.72c0 2.26-.68 4.08-2.04 5.46s-3.26 2.2-5.71 2.45v2.9c0 .51-.42.93-.93.93h-1.11c-.51 0-.93-.42-.93-.93v-2.9c-2.49-.23-4.44-1.11-5.85-2.66-1.26-1.38-1.96-3.2-2.09-5.45-.03-.46.36-.84.82-.84h2.09c.42 0 .78.31.81.73.11 1.51.59 2.7 1.44 3.57.98 1 2.36 1.51 4.16 1.51 1.75 0 3.13-.42 4.14-1.27.98-.87 1.48-2.03 1.48-3.48z"/><path d="m35.52 80.06-2.97-.85.34-29.83v-1l2.99.93-.36 29.87z"/></g><circle cx="84.65" cy="63.88" fill="#2e7d32" opacity=".5" r="18.5"/><path d="m106.33 39.06c.86 5.4 5.14 9.68 10.54 10.54v28.54c-5.4.86-9.68 5.14-10.54 10.54h-85.03c-1.1-5.11-5.26-9.05-10.42-9.87v-28.54c5.63-.89 10.03-5.49 10.63-11.21zm1.84-2h-88.61c.01.22.02.44.02.67 0 5.91-4.79 10.7-10.7 10.7v32.23c5.68 0 10.33 4.43 10.68 10.03h88.61c0-5.91 4.79-10.7 10.7-10.7v-32.23c-5.91 0-10.7-4.79-10.7-10.7z" fill="#2e7d32"/><path d="m52.87 31.88h22.01v76.18h-22.01z" fill="#ffecb3"/><path d="m52.87 95.88h22.01v12.18h-22.01z" fill="#ffb74d" opacity=".5"/><path d="m119.51 32.88c1.86 0 3.37 1.51 3.37 3.37v67.46c0 1.85-1.5 3.35-3.35 3.35h-111.31c-1.85 0-3.35-1.5-3.35-3.35v-67.47c0-1.86 1.51-3.37 3.37-3.37h111.27m0-.99h-111.27c-2.41 0-4.37 1.95-4.37 4.37v67.46c0 2.4 1.95 4.35 4.35 4.35h111.3c2.4 0 4.35-1.95 4.35-4.35v-67.47c.01-2.41-1.95-4.36-4.36-4.36z" fill="#424242" opacity=".2"/></svg>